<?xml version="1.0" encoding="UTF-8"?>
<svg version="1.1" xmlns="http://www.w3.org/2000/svg" width="774" height="134">
<path d="M0 0 C4.30088825 2.71142955 6.03541624 5.35039323 8 10 C8.38818359 13.32397461 8.38818359 13.32397461 8.3984375 16.90234375 C8.40423828 18.85624023 8.40423828 18.85624023 8.41015625 20.84960938 C8.40387207 21.52145264 8.39758789 22.1932959 8.39111328 22.88549805 C8.37506749 24.92890486 8.39098376 26.97032641 8.41015625 29.01367188 C8.38527531 37.40269467 8.17438094 43.12020108 2.75 49.75 C-4.12892585 55.37821206 -10.34050755 55.69779265 -19 55 C-21.76976505 54.50373276 -24.30421415 53.82947257 -27 53 C-26.125 47.25 -26.125 47.25 -25 45 C-23.81921875 45.02320313 -22.6384375 45.04640625 -21.421875 45.0703125 C-19.86458967 45.08907497 -18.30729748 45.10727466 -16.75 45.125 C-15.97269531 45.14175781 -15.19539063 45.15851563 -14.39453125 45.17578125 C-8.85410108 45.34548346 -8.85410108 45.34548346 -4 43 C-0.87582832 38.00019285 -1.63149367 32.32643867 -1.625 26.625 C-1.60050781 25.5009375 -1.57601562 24.376875 -1.55078125 23.21875 C-1.52830769 16.88120545 -1.60715608 12.75210996 -6 8 C-9.72746652 6.13626674 -13.94079368 6.44473121 -18 7 C-21.70232476 9.49340239 -22.73772666 11.11482747 -24 15.375 C-24 19.79561909 -23.32020929 22.2296599 -21 26 C-16.25144145 29.3340943 -13.23740295 29.11101015 -7.5625 28.1875 C-5.70425234 27.81129035 -3.84841261 27.42188728 -2 27 C-2 29.97 -2 32.94 -2 36 C-8.29897273 39.14948637 -15.74331301 39.3001044 -22.51953125 37.23046875 C-28.23934631 34.13542542 -31.09080117 29.08115184 -33 23 C-34.20394186 15.2206834 -32.31691312 9.98509056 -28.4375 3.3125 C-20.23915049 -4.46542133 -9.83825626 -4.30886035 0 0 Z " fill="#D31C00" transform="translate(244,66)"/>
<path d="M0 0 C1.60605197 0.0351501 3.21217778 0.06708264 4.81835938 0.09570312 C8.73490882 0.17246381 12.64788709 0.29303176 16.5625 0.4375 C16.786785 5.11451312 16.94909041 9.78833273 17.05688477 14.46948242 C17.10185437 16.05760264 17.16305903 17.64535633 17.24145508 19.23217773 C17.87552889 32.40682245 17.87552889 32.40682245 14.55419922 37.54345703 C12.33264237 39.78966361 10.19652475 41.69834612 7.5625 43.4375 C7.2325 43.4375 6.9025 43.4375 6.5625 43.4375 C6.2325 35.5175 5.9025 27.5975 5.5625 19.4375 C-2.3575 27.3575 -10.2775 35.2775 -18.4375 43.4375 C-22.00061466 41.65594267 -23.79395475 40.26986991 -26.4375 37.4375 C-24.87467018 33.67146131 -22.5311525 31.30110849 -19.6484375 28.453125 C-19.18515045 27.99266785 -18.7218634 27.53221069 -18.24453735 27.05780029 C-16.77184102 25.59624922 -15.29232597 24.14182832 -13.8125 22.6875 C-12.80943678 21.69447389 -11.80682743 20.70098911 -10.8046875 19.70703125 C-8.35498742 17.27761015 -5.89618151 14.85796366 -3.4375 12.4375 C-14.8225 11.9425 -14.8225 11.9425 -26.4375 11.4375 C-20.30170271 -0.83409459 -12.56559025 -0.47759799 0 0 Z " fill="#B6220B" transform="translate(756.4375,25.5625)"/>
<path d="M0 0 C1.093125 0.00257812 2.18625 0.00515625 3.3125 0.0078125 C4.405625 0.00523438 5.49875 0.00265625 6.625 0 C9.3125 0.1328125 9.3125 0.1328125 10.3125 1.1328125 C10.41123816 3.13080822 10.44221799 5.13238408 10.4375 7.1328125 C10.44136719 8.7725 10.44136719 8.7725 10.4453125 10.4453125 C10.3125 13.1328125 10.3125 13.1328125 9.3125 14.1328125 C6.97952567 14.17374187 4.64544775 14.17522973 2.3125 14.1328125 C2.33570313 15.10863281 2.35890625 16.08445312 2.3828125 17.08984375 C2.40085938 18.36214844 2.41890625 19.63445313 2.4375 20.9453125 C2.46070313 22.20988281 2.48390625 23.47445312 2.5078125 24.77734375 C2.3125 28.1328125 2.3125 28.1328125 0.3125 31.1328125 C-1.8515625 31.42578125 -1.8515625 31.42578125 -4.3125 31.3203125 C-5.53839844 31.27970703 -5.53839844 31.27970703 -6.7890625 31.23828125 C-7.41554687 31.20347656 -8.04203125 31.16867188 -8.6875 31.1328125 C-8.67589844 31.97585937 -8.66429687 32.81890625 -8.65234375 33.6875 C-8.64332031 34.78320312 -8.63429687 35.87890625 -8.625 37.0078125 C-8.61339844 38.09835938 -8.60179687 39.18890625 -8.58984375 40.3125 C-8.6875 43.1328125 -8.6875 43.1328125 -9.6875 45.1328125 C-13.49998426 45.16168486 -17.3124407 45.17956742 -21.125 45.1953125 C-22.21361328 45.20369141 -23.30222656 45.21207031 -24.42382812 45.22070312 C-25.45830078 45.22392578 -26.49277344 45.22714844 -27.55859375 45.23046875 C-28.51693115 45.23570557 -29.47526855 45.24094238 -30.46264648 45.24633789 C-32.6875 45.1328125 -32.6875 45.1328125 -33.6875 44.1328125 C-33.78682153 42.43722524 -33.81830007 40.73755503 -33.8203125 39.0390625 C-33.82224609 37.49412109 -33.82224609 37.49412109 -33.82421875 35.91796875 C-33.82035156 34.83386719 -33.81648437 33.74976563 -33.8125 32.6328125 C-33.81636719 31.54871094 -33.82023438 30.46460937 -33.82421875 29.34765625 C-33.82292969 28.31769531 -33.82164062 27.28773437 -33.8203125 26.2265625 C-33.81918457 25.27458984 -33.81805664 24.32261719 -33.81689453 23.34179688 C-33.6875 21.1328125 -33.6875 21.1328125 -32.6875 20.1328125 C-30.50110547 20.06022304 -28.31249611 20.04907467 -26.125 20.0703125 C-24.32869141 20.08384766 -24.32869141 20.08384766 -22.49609375 20.09765625 C-21.56925781 20.10925781 -20.64242187 20.12085937 -19.6875 20.1328125 C-19.69910156 19.42253906 -19.71070313 18.71226563 -19.72265625 17.98046875 C-19.73619141 16.60181641 -19.73619141 16.60181641 -19.75 15.1953125 C-19.76160156 14.27878906 -19.77320313 13.36226562 -19.78515625 12.41796875 C-19.6875 10.1328125 -19.6875 10.1328125 -18.6875 9.1328125 C-16.15700598 9.05967683 -13.65445163 9.04033723 -11.125 9.0703125 C-10.41408203 9.07482422 -9.70316406 9.07933594 -8.97070312 9.08398438 C-7.20959987 9.09580386 -5.44853964 9.11373987 -3.6875 9.1328125 C-3.708125 7.8334375 -3.72875 6.5340625 -3.75 5.1953125 C-3.77149454 3.84115617 -3.75898199 2.48525167 -3.6875 1.1328125 C-2.6875 0.1328125 -2.6875 0.1328125 0 0 Z M-16.6875 13.1328125 C-16.72842937 15.46578683 -16.72991723 17.79986475 -16.6875 20.1328125 C-14.3775 20.7928125 -12.0675 21.4528125 -9.6875 22.1328125 C-9.3575 23.7828125 -9.0275 25.4328125 -8.6875 27.1328125 C-6.35455225 27.17522973 -4.02047433 27.17374187 -1.6875 27.1328125 C0.12369819 25.32161431 -0.47231122 22.63499858 -0.4375 20.1953125 C-0.41171875 19.11378906 -0.3859375 18.03226563 -0.359375 16.91796875 C-0.46765625 15.99886719 -0.5759375 15.07976563 -0.6875 14.1328125 C-4.18802891 11.79912656 -5.68364337 11.89059271 -9.8125 11.9453125 C-10.88757813 11.95175781 -11.96265625 11.95820313 -13.0703125 11.96484375 C-15.61364526 11.83883553 -15.61364526 11.83883553 -16.6875 13.1328125 Z " fill="#7DB221" transform="translate(177.6875,9.8671875)"/>
<path d="M0 0 C5.59107938 3.1949025 8.53556036 5.75394793 11.0625 11.75 C11.40307617 14.90966797 11.40307617 14.90966797 11.35546875 18.2421875 C11.3409668 20.04042969 11.3409668 20.04042969 11.32617188 21.875 C11.30103516 23.1125 11.27589844 24.35 11.25 25.625 C11.22969727 27.51605469 11.22969727 27.51605469 11.20898438 29.4453125 C11.17373435 32.54731454 11.12445504 35.64843534 11.0625 38.75 C8.0925 38.75 5.1225 38.75 2.0625 38.75 C2.05839111 38.01885986 2.05428223 37.28771973 2.05004883 36.53442383 C2.01707791 33.20963693 1.94642853 29.88667384 1.875 26.5625 C1.86919922 25.41201172 1.86339844 24.26152344 1.85742188 23.07617188 C1.75948962 16.34484886 1.75948962 16.34484886 -1.27734375 10.51171875 C-4.68328656 8.25609436 -6.84921913 7.75 -10.9375 7.75 C-14.78953265 8.9056098 -17.1759215 9.94082285 -19.9375 12.875 C-21.34378109 16.91805814 -21.15163832 20.64651984 -19.9375 24.75 C-16.89562118 28.32626294 -14.24222512 29.60503054 -9.5625 30.125 C-5.33005567 29.68716093 -3.25414895 28.33860406 0.0625 25.75 C0.3925 29.05 0.7225 32.35 1.0625 35.75 C-5.26676098 39.05222312 -11.18357681 40.06685329 -18.1796875 38.12890625 C-23.70413559 35.78362168 -26.38982036 32.07497849 -28.9375 26.75 C-30.83090495 21.06978516 -30.85881907 15.00898331 -28.375 9.5 C-22.54710098 -0.76126506 -11.06081695 -4.49269386 0 0 Z " fill="#2C2C2C" transform="translate(178.9375,64.25)"/>
<path d="M0 0 C3.32121673 2.52166455 5.81424917 5.53474834 7.6875 9.28125 C7.77293895 11.38653933 7.79464725 13.49456157 7.78515625 15.6015625 C7.78193359 16.85839844 7.77871094 18.11523438 7.77539062 19.41015625 C7.76282227 21.38822266 7.76282227 21.38822266 7.75 23.40625 C7.74498489 24.74609211 7.74042201 26.085936 7.73632812 27.42578125 C7.72451086 30.71098206 7.70803617 33.99609397 7.6875 37.28125 C5.0475 37.28125 2.4075 37.28125 -0.3125 37.28125 C-0.33231934 36.61593262 -0.35213867 35.95061523 -0.37255859 35.26513672 C-0.46826418 32.22846732 -0.57775808 29.19244322 -0.6875 26.15625 C-0.7184375 25.10953125 -0.749375 24.0628125 -0.78125 22.984375 C-0.98014633 17.7467717 -1.22918375 13.17619631 -3.3125 8.28125 C-10.32867882 6.28278923 -14.76943012 5.776034 -21.3125 9.28125 C-23.95629633 13.36396499 -24.10186387 17.57025924 -23.3125 22.28125 C-21.292058 25.40967632 -19.79291605 26.81360456 -16.22265625 27.94140625 C-11.93599885 28.69615106 -9.06571674 28.51089135 -5.25 26.34375 C-4.280625 25.663125 -3.31125 24.9825 -2.3125 24.28125 C-2.3125 27.91125 -2.3125 31.54125 -2.3125 35.28125 C-9.09263977 37.63955948 -15.71654115 38.50251904 -22.625 36.15625 C-26.98317253 33.11566451 -30.31916189 29.26459526 -32.3125 24.28125 C-33.18257454 17.56327066 -33.43664775 11.07503478 -29.8125 5.15625 C-22.52664796 -3.94259313 -10.15108065 -5.92146371 0 0 Z " fill="#D41C00" transform="translate(288.3125,65.71875)"/>
<path d="M0 0 C3.71945499 3.4875068 5.54740612 5.61381374 6.07006836 10.75366211 C6.14786586 14.5167657 6.10202733 18.25696508 6.00390625 22.01953125 C5.98585938 23.32792969 5.9678125 24.63632813 5.94921875 25.984375 C5.90219973 29.20517814 5.83648806 32.42447599 5.75390625 35.64453125 C3.11390625 35.64453125 0.47390625 35.64453125 -2.24609375 35.64453125 C-2.26067627 34.97397705 -2.27525879 34.30342285 -2.2902832 33.61254883 C-2.36497675 30.56014303 -2.46156674 27.5088054 -2.55859375 24.45703125 C-2.58115234 23.40193359 -2.60371094 22.34683594 -2.62695312 21.25976562 C-2.68012695 19.72739258 -2.68012695 19.72739258 -2.734375 18.1640625 C-2.76055908 17.22667236 -2.78674316 16.28928223 -2.8137207 15.32348633 C-3.42644515 11.52708577 -4.89531732 8.65761357 -7.99609375 6.33203125 C-12.51639061 4.95082943 -16.16471893 5.23646528 -20.55859375 6.89453125 C-23.43754546 8.76919748 -24.3622201 9.37419873 -25.24609375 12.64453125 C-25.79817412 18.38770804 -25.79817412 18.38770804 -23.55859375 23.51953125 C-21.05252754 25.8224029 -19.55709987 26.87452983 -16.24609375 27.64453125 C-11.4224019 27.38611919 -8.20598247 26.40445369 -4.24609375 23.64453125 C-4.24609375 26.94453125 -4.24609375 30.24453125 -4.24609375 33.64453125 C-10.78397257 36.28077271 -16.33713286 37.82163147 -23.24609375 35.64453125 C-28.85283351 32.26148149 -32.54226657 28.03388318 -34.24609375 21.64453125 C-35.09292583 14.49469586 -34.58031962 8.54873987 -30.24609375 2.64453125 C-22.24899931 -6.38965036 -9.6317859 -6.220095 0 0 Z " fill="#D71C00" transform="translate(352.24609375,66.35546875)"/>
<path d="M0 0 C2.64 0 5.28 0 8 0 C8.01401855 1.24873901 8.01401855 1.24873901 8.02832031 2.52270508 C8.07236366 5.61502289 8.13398775 8.70634946 8.20751953 11.7980957 C8.24958649 13.79289131 8.27137864 15.78808082 8.29296875 17.78320312 C8.32519531 19.03681641 8.35742188 20.29042969 8.390625 21.58203125 C8.41157227 22.73936768 8.43251953 23.8967041 8.45410156 25.08911133 C8.73804612 28.07318572 8.73804612 28.07318572 10.81542969 29.88549805 C13.95521866 31.48732378 16.52892482 31.25244183 20 31 C20.99 30.67 21.98 30.34 23 30 C24.31604502 26.7502034 24.11463327 23.38518628 24.09765625 19.921875 C24.09282227 18.18164062 24.09282227 18.18164062 24.08789062 16.40625 C24.07951172 15.1996875 24.07113281 13.993125 24.0625 12.75 C24.05798828 11.52796875 24.05347656 10.3059375 24.04882812 9.046875 C24.03704815 6.03120054 24.02059853 3.01562502 24 0 C26.97 0 29.94 0 33 0 C33.09938095 4.16253275 33.17170617 8.32442479 33.21972656 12.48779297 C33.23975843 13.90197795 33.26699248 15.31608097 33.30175781 16.72998047 C33.35065489 18.77071419 33.37305123 20.8103469 33.390625 22.8515625 C33.41157227 24.07697754 33.43251953 25.30239258 33.45410156 26.56494141 C32.90876883 30.69011968 31.6111551 32.79569362 29 36 C27.94554687 36.61359375 26.89109375 37.2271875 25.8046875 37.859375 C22.59273476 39.8258863 22.59273476 39.8258863 22.1953125 43.890625 C22.14249962 45.34297908 22.11986465 46.79669507 22.125 48.25 C22.104375 48.99507812 22.08375 49.74015625 22.0625 50.5078125 C22.01557061 52.33805864 22.00425777 54.16915725 22 56 C19.03 56 16.06 56 13 56 C13 50.72 13 45.44 13 40 C11.35 39.67 9.7 39.34 8 39 C6.015625 37.6953125 6.015625 37.6953125 4.25 36.125 C3.36054688 35.35542969 3.36054688 35.35542969 2.453125 34.5703125 C-0.63392696 31.23430473 -0.11578574 27.44121993 -0.09765625 23.14453125 C-0.0962413 22.48289474 -0.09482635 21.82125824 -0.09336853 21.13957214 C-0.08777996 19.03050172 -0.07522965 16.92153823 -0.0625 14.8125 C-0.05748352 13.38086091 -0.05292087 11.94922015 -0.04882812 10.51757812 C-0.0378143 7.01168412 -0.02055755 3.5058525 0 0 Z " fill="#D71C00" transform="translate(393,63)"/>
<path d="M0 0 C2.64 0 5.28 0 8 0 C8.01458252 0.83249268 8.02916504 1.66498535 8.04418945 2.52270508 C8.1052863 5.61489653 8.17944556 8.70642082 8.26245117 11.7980957 C8.31201319 13.7929063 8.34651133 15.78807257 8.38085938 17.78320312 C8.41630859 19.03681641 8.45175781 20.29042969 8.48828125 21.58203125 C8.51446533 22.73936768 8.54064941 23.8967041 8.56762695 25.08911133 C8.76191754 27.98865025 8.76191754 27.98865025 10.38745117 29.84643555 C12.66911854 31.47866542 14.18710547 31.8691677 17 32 C18.98 31.01 20.96 30.02 23 29 C23.33 19.43 23.66 9.86 24 0 C26.97 0 29.94 0 33 0 C33.08755672 4.35403865 33.14057969 8.70784877 33.1875 13.0625 C33.21263672 14.29162109 33.23777344 15.52074219 33.26367188 16.78710938 C33.33006281 24.99745448 33.05496593 30.38227718 27.625 36.8125 C22.89833095 40.75139088 19.12846775 41.52831619 13 41 C7.13371883 39.17942998 4.45039539 36.87114644 1 32 C-0.13917218 28.58248347 -0.11338481 25.96512063 -0.09765625 22.36328125 C-0.09443359 21.06455078 -0.09121094 19.76582031 -0.08789062 18.42773438 C-0.07953531 17.05598892 -0.07107037 15.68424413 -0.0625 14.3125 C-0.05748335 12.92903805 -0.05292073 11.54557437 -0.04882812 10.16210938 C-0.03702529 6.77469605 -0.02056019 3.38736967 0 0 Z " fill="#2C2C2C" transform="translate(110,63)"/>
<path d="M0 0 C2.31 0 4.62 0 7 0 C8.6750644 4.10078931 10.33860345 8.20615636 12 12.3125 C12.71542969 14.06336914 12.71542969 14.06336914 13.4453125 15.84960938 C13.89648438 16.96787109 14.34765625 18.08613281 14.8125 19.23828125 C15.23144531 20.26993408 15.65039062 21.30158691 16.08203125 22.36450195 C17 25 17 25 17 28 C17.66 28 18.32 28 19 28 C19.25197144 27.20057983 19.25197144 27.20057983 19.5090332 26.38500977 C21.43459248 20.42783089 23.72011366 14.68878571 26.1875 8.9375 C26.55552734 8.07189453 26.92355469 7.20628906 27.30273438 6.31445312 C28.19872592 4.20829117 29.09784655 2.10352808 30 0 C31.98 0 33.96 0 36 0 C36 12.87 36 25.74 36 39 C34.35 39 32.7 39 31 39 C30.505 26.625 30.505 26.625 30 14 C26.7 22.25 23.4 30.5 20 39 C18.68 38.67 17.36 38.34 16 38 C14.62792969 35.68334961 14.62792969 35.68334961 13.421875 32.65234375 C12.76445312 31.03295898 12.76445312 31.03295898 12.09375 29.38085938 C11.6503125 28.24455078 11.206875 27.10824219 10.75 25.9375 C10.29109375 24.79732422 9.8321875 23.65714844 9.359375 22.48242188 C8.22585297 19.66042432 7.11114771 16.83088204 6 14 C5.67 22.25 5.34 30.5 5 39 C3.35 39 1.7 39 0 39 C0 26.13 0 13.26 0 0 Z " fill="#323232" transform="translate(484,32)"/>
<path d="M0 0 C5.81847474 1.04211488 9.63139341 1.7723162 14 6 C16.21832888 4.93191573 18.22238907 3.84556315 20.25 2.4375 C23.89211445 0.53366744 26.91636799 0.34607051 31 0 C31 2.97 31 5.94 31 9 C29.3603125 9.61875 29.3603125 9.61875 27.6875 10.25 C24.47293162 11.63973259 22.68351755 12.8200224 21 16 C19.74778803 19.39886107 19.88395214 20.69461089 21.1875 24.125 C23.97543041 28.54723445 25.93028696 29.73257174 31 31 C31 33.97 31 36.94 31 40 C24.97515197 39.58449324 22.01900087 38.53611425 17 35 C12.97979356 34.62179651 12.97979356 34.62179651 10.1875 36.9375 C6.66135949 39.21912033 4.14184443 39.66865245 0 40 C0 37.03 0 34.06 0 31 C1.093125 30.608125 2.18625 30.21625 3.3125 29.8125 C5.94520657 28.66668641 7.01012188 27.98824556 8.9375 25.75 C10.31720461 22.17899984 10.54279755 19.79958287 10 16 C7.13191114 12.31245719 4.44431588 10.39678499 0 9 C0 6.03 0 3.06 0 0 Z " fill="#D41C00" transform="translate(360,63)"/>
<path d="M0 0 C2.97 0 5.94 0 9 0 C12.63 8.91 16.26 17.82 20 27 C22.16884869 21.10752108 22.16884869 21.10752108 24.3371582 15.21484375 C26.20722888 10.13652663 28.09468679 5.06520189 30 0 C32.97 0 35.94 0 39 0 C38.46974178 7.14289016 35.77308237 13.43763874 33.1875 20.0625 C32.74857422 21.22072266 32.30964844 22.37894531 31.85742188 23.57226562 C27.08699087 35.91300913 27.08699087 35.91300913 23 40 C20.1875 40.375 20.1875 40.375 17 40 C13.76337967 36.59434318 11.99970647 33.11808567 10.2734375 28.78125 C9.7990625 27.60175781 9.3246875 26.42226562 8.8359375 25.20703125 C8.35382812 23.98371094 7.87171875 22.76039062 7.375 21.5 C6.88515625 20.27667969 6.3953125 19.05335937 5.890625 17.79296875 C4.58608589 14.53162099 3.29182875 11.26639679 2 8 C1.61924316 7.10861328 1.23848633 6.21722656 0.84619141 5.29882812 C0 3 0 3 0 0 Z " fill="#2C2C2C" transform="translate(0,63)"/>
<path d="M0 0 C2.64 0 5.28 0 8 0 C8 2.97 8 5.94 8 9 C12.62 9 17.24 9 22 9 C22 11.97 22 14.94 22 18 C17.38 18 12.76 18 8 18 C8.33 24.93 8.66 31.86 9 39 C11.43387753 40.21693876 13.41838846 40.31959896 16.125 40.5625 C17.03507812 40.64628906 17.94515625 40.73007813 18.8828125 40.81640625 C19.58148438 40.87699219 20.28015625 40.93757813 21 41 C21 43.64 21 46.28 21 49 C18.77144426 49.0814222 16.54202345 49.13938079 14.3125 49.1875 C12.45044922 49.23970703 12.45044922 49.23970703 10.55078125 49.29296875 C6.7542292 48.97972188 4.98532629 48.30757653 2 46 C-0.07538624 42.88692064 -0.24772151 42.23651805 -0.22705078 38.7121582 C-0.22689972 37.85149246 -0.22674866 36.99082672 -0.22659302 36.1040802 C-0.21627045 35.17899155 -0.20594788 34.25390289 -0.1953125 33.30078125 C-0.1924826 32.35059616 -0.18965271 31.40041107 -0.18673706 30.4214325 C-0.17553715 27.38499385 -0.15043288 24.34884958 -0.125 21.3125 C-0.11496996 19.25456155 -0.10584415 17.19661848 -0.09765625 15.13867188 C-0.07559842 10.0923344 -0.04106982 5.04621712 0 0 Z " fill="#2D2D2D" transform="translate(85,54)"/>
<path d="M0 0 C1.66654822 0.01986943 3.33347712 0.02189193 5 0 C5.07451364 4.3049777 5.12877223 8.60960734 5.16479492 12.91503906 C5.17982196 14.37767075 5.20024955 15.84025782 5.22631836 17.30273438 C5.26297267 19.4128728 5.27978676 21.52241226 5.29296875 23.6328125 C5.3086792 24.90012207 5.32438965 26.16743164 5.34057617 27.47314453 C4.8915045 32.12353122 3.45663999 35.47277393 0.2265625 38.859375 C-2.82323897 40.42172944 -5.21700403 40.32692993 -8.625 40.25 C-9.77226563 40.23453125 -10.91953125 40.2190625 -12.1015625 40.203125 C-15 40 -15 40 -17 39 C-17 37.02 -17 35.04 -17 33 C-16.33613281 33.17917969 -15.67226563 33.35835937 -14.98828125 33.54296875 C-9.44936145 34.93136004 -9.44936145 34.93136004 -3.9375 34 C-1.44452315 31.42660455 -1.23452936 29.51794045 -1 26 C-1.66 26.66 -2.32 27.32 -3 28 C-7.41919089 28.74666094 -11.00516605 28.55033368 -14.9375 26.375 C-18.15636253 22.66843103 -18.86554261 19.45213983 -19.3125 14.625 C-18.89220097 9.7495313 -17.80574393 5.12908651 -14.58203125 1.328125 C-10.33411343 -2.23802823 -4.98314388 -1.28597261 0 0 Z M-13 8 C-14.08896193 11.77980265 -14.24660546 14.99115947 -13.3125 18.8125 C-11.75714698 21.40475504 -10.75217492 22.70036184 -8 24 C-4.82108283 23.57926181 -4.82108283 23.57926181 -2 22 C0.81015613 17.68033433 0.66931984 12.97445115 0 8 C-1.48292843 5.26362699 -1.48292843 5.26362699 -4 4 C-8.43860272 3.11227946 -10.44964941 4.35664201 -13 8 Z " fill="#323232" transform="translate(709,43)"/>
<path d="M0 0 C2.875 1.5 2.875 1.5 5 3 C5.515625 2.505 6.03125 2.01 6.5625 1.5 C9.9238388 -0.56851618 12.11959911 -0.48505011 16 0 C18.36497439 1.86708505 19.66030715 3.32061431 21 6 C21.08449628 7.7404417 21.10723024 9.48409722 21.09765625 11.2265625 C21.09443359 12.2578125 21.09121094 13.2890625 21.08789062 14.3515625 C21.07532227 15.97191406 21.07532227 15.97191406 21.0625 17.625 C21.05798828 18.71296875 21.05347656 19.8009375 21.04882812 20.921875 C21.03701776 23.61463789 21.02054778 26.30729188 21 29 C19.35 29 17.7 29 16 29 C15.97494385 28.37432129 15.9498877 27.74864258 15.92407227 27.10400391 C15.80824727 24.27745381 15.68546015 21.45124831 15.5625 18.625 C15.52318359 17.64015625 15.48386719 16.6553125 15.44335938 15.640625 C15.40146484 14.69960938 15.35957031 13.75859375 15.31640625 12.7890625 C15.27974854 11.91975098 15.24309082 11.05043945 15.20532227 10.15478516 C15.12598456 7.9516738 15.12598456 7.9516738 14 6 C11.58380177 5.74969023 11.58380177 5.74969023 9 6 C6.91254955 9.13117567 6.72346004 10.06946224 6.5859375 13.66796875 C6.54726563 14.56064453 6.50859375 15.45332031 6.46875 16.37304688 C6.42234375 17.76620117 6.42234375 17.76620117 6.375 19.1875 C6.33632813 20.12787109 6.29765625 21.06824219 6.2578125 22.03710938 C6.16356813 24.3578771 6.07795975 26.67863748 6 29 C4.35 29 2.7 29 1 29 C0.98018066 28.44538086 0.96036133 27.89076172 0.93994141 27.31933594 C0.84442349 24.79576307 0.73485433 22.27298776 0.625 19.75 C0.5940625 18.87730469 0.563125 18.00460938 0.53125 17.10546875 C0.49257813 16.26113281 0.45390625 15.41679688 0.4140625 14.546875 C0.3826416 13.77182617 0.3512207 12.99677734 0.31884766 12.19824219 C-0.03026506 9.79134258 -0.80551104 8.10397705 -2 6 C-3.65 6 -5.3 6 -7 6 C-8.67128932 8.94381488 -9.27731759 11.17383394 -9.4140625 14.546875 C-9.45273437 15.39121094 -9.49140625 16.23554687 -9.53125 17.10546875 C-9.57765625 18.41451172 -9.57765625 18.41451172 -9.625 19.75 C-9.66367187 20.63816406 -9.70234375 21.52632812 -9.7421875 22.44140625 C-9.83620873 24.6273998 -9.92186143 26.81339062 -10 29 C-11.65 29 -13.3 29 -15 29 C-15 19.76 -15 10.52 -15 1 C-12.66666667 1 -10.33333333 1 -8 1 C-5.17998673 -0.41000664 -3.12992745 -0.24548451 0 0 Z " fill="#323232" transform="translate(597,42)"/>
<path d="M0 0 C2.97 0 5.94 0 9 0 C9 18.81 9 37.62 9 57 C6.03 57 3.06 57 0 57 C0 38.19 0 19.38 0 0 Z " fill="#2D2D2D" transform="translate(196,46)"/>
<path d="M0 0 C2.64 0 5.28 0 8 0 C8 18.81 8 37.62 8 57 C5.36 57 2.72 57 0 57 C0 38.19 0 19.38 0 0 Z " fill="#E81F00" transform="translate(303,46)"/>
<path d="M0 0 C1 1 1 1 1.09765625 2.84765625 C1.06510417 4.8984375 1.03255208 6.94921875 1 9 C-0.0725 9.04125 -1.145 9.0825 -2.25 9.125 C-6.06195795 9.65868576 -6.06195795 9.65868576 -8.1875 12.25 C-11.23841945 17.2207157 -10.67992631 23.2308826 -10.75 28.875 C-10.77964844 30.0403125 -10.80929688 31.205625 -10.83984375 32.40625 C-10.91028601 35.27090195 -10.96311113 38.13475205 -11 41 C-13.64 41 -16.28 41 -19 41 C-19 27.8 -19 14.6 -19 1 C-16.36 1 -13.72 1 -11 1 C-11 1.66 -11 2.32 -11 3 C-10.29875 2.505 -9.5975 2.01 -8.875 1.5 C-5.61189846 -0.20248776 -3.6286739 -0.32987945 0 0 Z " fill="#2B2B2B" transform="translate(80,62)"/>
<path d="M0 0 C2.125 1.6875 2.125 1.6875 3.125 4.6875 C3.20709792 6.46063851 3.23246294 8.23670775 3.22265625 10.01171875 C3.21943359 11.03974609 3.21621094 12.06777344 3.21289062 13.12695312 C3.20451172 14.19880859 3.19613281 15.27066406 3.1875 16.375 C3.18298828 17.45845703 3.17847656 18.54191406 3.17382812 19.65820312 C3.16203743 22.33469085 3.14558063 25.01106777 3.125 27.6875 C0.45833333 27.6875 -2.20833333 27.6875 -4.875 27.6875 C-5.94234375 27.73970703 -5.94234375 27.73970703 -7.03125 27.79296875 C-7.8046875 27.82003906 -8.578125 27.84710938 -9.375 27.875 C-10.53515625 27.92720703 -10.53515625 27.92720703 -11.71875 27.98046875 C-13.875 27.6875 -13.875 27.6875 -15.625 26.484375 C-18.07906372 22.95665841 -17.55883428 18.77709719 -16.875 14.6875 C-14.64102159 11.63439618 -13.00900748 10.88660055 -9.31640625 10.23828125 C-6.8321983 9.96695641 -4.37154158 9.78445307 -1.875 9.6875 C-2.535 8.0375 -3.195 6.3875 -3.875 4.6875 C-8.09378192 4.49127759 -11.04510894 4.88519832 -14.875 6.6875 C-14.875 4.7075 -14.875 2.7275 -14.875 0.6875 C-9.7879488 -1.77894907 -5.23200521 -2.38852412 0 0 Z M-10.875 15.6875 C-12.17133621 16.75395115 -12.17133621 16.75395115 -11.9375 19.25 C-11.916875 20.054375 -11.89625 20.85875 -11.875 21.6875 C-9.4 22.6775 -9.4 22.6775 -6.875 23.6875 C-2.98765631 20.47931756 -2.98765631 20.47931756 -1.5625 15.875 C-1.665625 15.153125 -1.76875 14.43125 -1.875 13.6875 C-5.04491915 13.6875 -7.86556687 14.75731158 -10.875 15.6875 Z " fill="#323232" transform="translate(541.875,43.3125)"/>
<path d="M0 0 C4.03330746 2.09134461 6.40327286 3.74689953 8 8 C9.33349905 20.86981646 9.33349905 20.86981646 6.25 25.75 C2.93126291 29.06873709 0.25479869 30.2881033 -4.4375 30.3125 C-8.42416967 30.20121365 -10.92239008 29.71553816 -14 27 C-17.97531334 21.65388896 -17.78809076 15.38353512 -17 9 C-13.53086841 1.67627775 -8.1042935 -1.44323035 0 0 Z M-10 7 C-12.20086064 10.81482511 -13.0123159 13.2733619 -12.9375 17.6875 C-11.89751723 21.3621058 -11.07634904 22.77819236 -8 25 C-4.77160088 26.24169197 -3.52067541 26.21795715 -0.3125 24.875 C2.48834271 22.60404645 3.23330818 21.52678237 4 18 C4.06335283 13.57322118 3.82410643 10.13669853 1.1875 6.5 C-3.32903393 3.40294816 -5.6473689 3.42861038 -10 7 Z " fill="#EF2000" transform="translate(569,80)"/>
<path d="M0 0 C3.33761045 2.15090451 4.73470933 3.20412799 6 7 C6.08178114 8.70016844 6.10749501 10.40336297 6.09765625 12.10546875 C6.09443359 13.08837891 6.09121094 14.07128906 6.08789062 15.08398438 C6.07951172 16.10814453 6.07113281 17.13230469 6.0625 18.1875 C6.05798828 19.22326172 6.05347656 20.25902344 6.04882812 21.32617188 C6.0370401 23.88417266 6.02058515 26.44205733 6 29 C4.35 29 2.7 29 1 29 C0.98018066 28.40985107 0.96036133 27.81970215 0.93994141 27.21166992 C0.84465341 24.53649904 0.73499061 21.86210502 0.625 19.1875 C0.5940625 18.25873047 0.563125 17.32996094 0.53125 16.37304688 C0.49257813 15.48037109 0.45390625 14.58769531 0.4140625 13.66796875 C0.36693115 12.43469849 0.36693115 12.43469849 0.31884766 11.17651367 C0.11626378 8.71047063 0.11626378 8.71047063 -2 6 C-4.5 5.58333333 -4.5 5.58333333 -7 6 C-9.98517617 8.98517617 -10.09935776 12.01646062 -10.31640625 16.109375 C-10.35830078 16.86347656 -10.40019531 17.61757813 -10.44335938 18.39453125 C-10.50233398 19.56048828 -10.50233398 19.56048828 -10.5625 20.75 C-10.60568359 21.54277344 -10.64886719 22.33554688 -10.69335938 23.15234375 C-10.79902991 25.10137815 -10.89997966 27.05066748 -11 29 C-12.65 29 -14.3 29 -16 29 C-16 19.76 -16 10.52 -16 1 C-14.35 1 -12.7 1 -11 1 C-10.67 1.66 -10.34 2.32 -10 3 C-9.46375 2.505 -8.9275 2.01 -8.375 1.5 C-5.28147204 -0.45380713 -3.60630834 -0.51518691 0 0 Z " fill="#323232" transform="translate(681,42)"/>
<path d="M0 0 C2.64 0 5.28 0 8 0 C8 13.2 8 26.4 8 40 C5.36 40 2.72 40 0 40 C0 26.8 0 13.6 0 0 Z " fill="#2C2C2C" transform="translate(44,63)"/>
<path d="M0 0 C4.62 0 9.24 0 14 0 C18.27647663 4.27647663 18.7083385 5.1563212 19.109375 10.6796875 C18.89537158 15.21961711 17.23268756 18.76731244 14 22 C11.31160615 22.26991906 8.70858064 22.08737357 6 22 C5.67 24.97 5.34 27.94 5 31 C3.35 31 1.7 31 0 31 C0 20.77 0 10.54 0 0 Z M6.3125 5 C4.28162456 8.09466734 4.44076817 11.39767547 5 15 C5.99 16.485 5.99 16.485 7 18 C9.43717258 17.72965366 9.43717258 17.72965366 12 17 C14.46324069 13.30513897 14.38991688 11.36706908 14 7 C12.83115894 4.99515224 12.83115894 4.99515224 11 4 C8.10322171 3.7450988 8.10322171 3.7450988 6.3125 5 Z " fill="#EF2000" transform="translate(580,88)"/>
<path d="M0 0 C1.98 0 3.96 0 6 0 C7.65 2.97 9.3 5.94 11 9 C12.65 6.03 14.3 3.06 16 0 C17.98 0 19.96 0 22 0 C21.08730972 2.57212715 20.19325182 4.75211154 18.5078125 6.9140625 C16.73147651 9.34437294 15.65278712 11.04481507 15 14 C16.37340005 17.53780898 18.1436676 20.3738251 20.29296875 23.49609375 C22 26 22 26 22 28 C20.02 28 18.04 28 16 28 C12 21.25 12 21.25 12 19 C9.83681709 20.94686462 8.62957812 22.6297172 7.125 25.1875 C6.42375 26.115625 5.7225 27.04375 5 28 C2.25 28.375 2.25 28.375 0 28 C1.43668192 23.82056168 3.57927887 20.59526835 6.171875 17.0625 C7.25861265 14.96686654 7.25861265 14.96686654 6.3046875 12.58203125 C5.87414062 11.72996094 5.44359375 10.87789062 5 10 C4.57460938 9.11699219 4.14921875 8.23398437 3.7109375 7.32421875 C3.27007813 6.45410156 2.82921875 5.58398438 2.375 4.6875 C1.92898438 3.80449219 1.48296875 2.92148437 1.0234375 2.01171875 C0.68570313 1.34785156 0.34796875 0.68398438 0 0 Z " fill="#323232" transform="translate(547,43)"/>
<path d="M0 0 C2.475 0.495 2.475 0.495 5 1 C5.33 0.67 5.66 0.34 6 0 C12.25280899 -0.58988764 12.25280899 -0.58988764 15.375 1.875 C18.58853795 6.07731885 18.5172036 9.84579856 18 15 C16.61019502 17.96912882 15.30342972 19.69657028 13 22 C10.31160615 22.26991906 7.70858064 22.08737357 5 22 C4.67 24.97 4.34 27.94 4 31 C2.68 31 1.36 31 0 31 C0 20.77 0 10.54 0 0 Z M6.3125 5.5625 C4.51682791 8.89731959 4.59286246 11.26790586 5 15 C6.08674994 17.08984231 6.08674994 17.08984231 8 18 C10.97397616 17.72963853 11.85446026 17.14553974 14 15 C14.57821009 9.70482344 14.57821009 9.70482344 12.6875 5 C10.0410871 3.43175532 8.56866245 3.47346069 6.3125 5.5625 Z " fill="#EF2000" transform="translate(601,88)"/>
<path d="M0 0 C6.6 0 13.2 0 20 0 C19.09143414 3.63426345 18.31259578 5.32880621 16.27734375 8.328125 C15.73916016 9.12734375 15.20097656 9.9265625 14.64648438 10.75 C14.08251953 11.575 13.51855469 12.4 12.9375 13.25 C12.36966797 14.09046875 11.80183594 14.9309375 11.21679688 15.796875 C9.81637222 17.8680913 8.40886454 19.93451534 7 22 C11.29 22.33 15.58 22.66 20 23 C20 24.65 20 26.3 20 28 C13.07 28 6.14 28 -1 28 C-0.12292811 23.61464053 0.35559209 22.03760736 2.72265625 18.57421875 C3.26083984 17.77822266 3.79902344 16.98222656 4.35351562 16.16210938 C4.91748047 15.34548828 5.48144531 14.52886719 6.0625 13.6875 C6.63033203 12.85154297 7.19816406 12.01558594 7.78320312 11.15429688 C9.18154536 9.09791124 10.58981279 7.04828097 12 5 C8.04 4.67 4.08 4.34 0 4 C0 2.68 0 1.36 0 0 Z " fill="#323232" transform="translate(632,43)"/>
<path d="M0 0 C1.093125 0.00257812 2.18625 0.00515625 3.3125 0.0078125 C4.405625 0.00523438 5.49875 0.00265625 6.625 0 C9.3125 0.1328125 9.3125 0.1328125 10.3125 1.1328125 C10.41123816 3.13080822 10.44221799 5.13238408 10.4375 7.1328125 C10.44136719 8.7725 10.44136719 8.7725 10.4453125 10.4453125 C10.3125 13.1328125 10.3125 13.1328125 9.3125 14.1328125 C7.0025 14.1328125 4.6925 14.1328125 2.3125 14.1328125 C2.3125 18.7528125 2.3125 23.3728125 2.3125 28.1328125 C1.3225 27.4728125 0.3325 26.8128125 -0.6875 26.1328125 C-0.98046875 23.3125 -0.98046875 23.3125 -0.875 20.0078125 C-0.84792969 18.91210938 -0.82085937 17.81640625 -0.79296875 16.6875 C-0.75816406 15.84445313 -0.72335938 15.00140625 -0.6875 14.1328125 C-3.97269475 13.03774758 -6.42413415 13.03320642 -9.875 13.0703125 C-10.96167969 13.07933594 -12.04835937 13.08835937 -13.16796875 13.09765625 C-13.99941406 13.10925781 -14.83085937 13.12085938 -15.6875 13.1328125 C-16.0175 15.4428125 -16.3475 17.7528125 -16.6875 20.1328125 C-17.6775 20.1328125 -18.6675 20.1328125 -19.6875 20.1328125 C-19.71438151 18.48706684 -19.73384123 16.84119837 -19.75 15.1953125 C-19.76160156 14.27878906 -19.77320313 13.36226562 -19.78515625 12.41796875 C-19.6875 10.1328125 -19.6875 10.1328125 -18.6875 9.1328125 C-16.15700598 9.05967683 -13.65445163 9.04033723 -11.125 9.0703125 C-10.41408203 9.07482422 -9.70316406 9.07933594 -8.97070312 9.08398438 C-7.20959987 9.09580386 -5.44853964 9.11373987 -3.6875 9.1328125 C-3.708125 7.8334375 -3.72875 6.5340625 -3.75 5.1953125 C-3.77149454 3.84115617 -3.75898199 2.48525167 -3.6875 1.1328125 C-2.6875 0.1328125 -2.6875 0.1328125 0 0 Z " fill="#72A31E" transform="translate(177.6875,9.8671875)"/>
<path d="M0 0 C2.375 1.4375 2.375 1.4375 4 4 C4.61629008 7.03444522 4.8171677 9.89185091 5 13 C0.71 13 -3.58 13 -8 13 C-7.67 14.32 -7.34 15.64 -7 17 C-3.4780279 17.08004482 -0.38018531 17.04005702 3 16 C3 17.65 3 19.3 3 21 C-0.45031261 22.72515631 -4.22716304 22.49677924 -8 22 C-11.03215675 19.80168636 -11.81654398 18.55036806 -13 15 C-13.50149463 8.88176547 -13.06790897 5.90541964 -9 1 C-5.90826248 -0.54586876 -3.40570448 -0.29359521 0 0 Z M-5 4 C-6.70532323 5.94009522 -6.70532323 5.94009522 -8 8 C-5.36 8 -2.72 8 0 8 C-0.66 6.68 -1.32 5.36 -2 4 C-2.99 4 -3.98 4 -5 4 Z " fill="#EF2000" transform="translate(754,88)"/>
<path d="M0 0 C0.66 0 1.32 0 2 0 C2 40.92 2 81.84 2 124 C1.34 124 0.68 124 0 124 C0 83.08 0 42.16 0 0 Z " fill="#323232" transform="translate(461,10)"/>
<path d="M0 0 C2.94214318 1.30086496 3.83163498 2.39796197 6 5 C7.41816098 8.97405563 7.45403186 11.92466138 5.8125 15.8125 C1.73551637 20.73299748 1.73551637 20.73299748 -2.08203125 21.3203125 C-6.2192992 21.52614673 -8.42008631 21.36244605 -12 19.125 C-15.32530877 15.59185943 -15.33074386 12.95338737 -15.29296875 8.26171875 C-14.86344199 4.9457722 -13.39075646 3.25012373 -11 1 C-7.50018464 -0.74990768 -3.81877994 -0.551032 0 0 Z M-6 2 C-6.66 2.66 -7.32 3.32 -8 4 C-5.69 4.33 -3.38 4.66 -1 5 C-1 7.66666667 -1 10.33333333 -1 13 C0.43750191 14.68798827 0.43750191 14.68798827 2 16 C4.35618542 13.11400612 4.35618542 13.11400612 3.8125 9.5 C3.23676756 6.14559557 3.23676756 6.14559557 1.8125 4.125 C-0.76593804 2.52459018 -2.99351519 2.19190329 -6 2 Z M-10 4 C-12.15531295 6.81848617 -12.98944577 8.48284281 -13.0625 12.0625 C-11.59776484 16.11206192 -9.85254016 17.18276408 -6 19 C-2.74210981 19.02827577 -2.74210981 19.02827577 0 18 C0.33 17.34 0.66 16.68 1 16 C0.401875 15.731875 -0.19625 15.46375 -0.8125 15.1875 C-2.97470166 14.01373338 -4.31624122 12.76393777 -6 11 C-6.33 11 -6.66 11 -7 11 C-7 12.65 -7 14.3 -7 16 C-7.66 16 -8.32 16 -9 16 C-9 12.04 -9 8.08 -9 4 C-9.33 4 -9.66 4 -10 4 Z M-7 6 C-7 6.99 -7 7.98 -7 9 C-5.35 8.67 -3.7 8.34 -2 8 C-2.33 7.34 -2.66 6.68 -3 6 C-4.32 6 -5.64 6 -7 6 Z " fill="#323232" transform="translate(444,43)"/>
<path d="M0 0 C2.43119623 1.87015094 3.64069173 3.28138345 5 6 C5.60542647 10.80881593 5.92821687 15.50860944 3.0625 19.625 C-0.54341861 22.42142668 -2.45852605 22.76503154 -6.91015625 22.46875 C-9.90957133 21.795984 -11.25192088 20.47644542 -13 18 C-14.84862688 14.30274625 -14.47587094 10.03538558 -14 6 C-10.45521038 0.21017695 -6.65980665 -0.9890802 0 0 Z M-7.1875 5.625 C-9.23468995 7.9089578 -9.23468995 7.9089578 -9.4375 11 C-8.965678 14.23535087 -8.19007834 15.62741513 -6 18 C-3.02934491 17.65772428 -3.02934491 17.65772428 0 17 C1.58931152 13.82137696 1.40341627 10.46088698 1 7 C-0.1488697 4.92993467 -0.1488697 4.92993467 -2 4 C-5.05279952 3.701838 -5.05279952 3.701838 -7.1875 5.625 Z " fill="#EF2000" transform="translate(635,88)"/>
<path d="M0 0 C1.32 0 2.64 0 4 0 C4.06058594 0.89203125 4.12117187 1.7840625 4.18359375 2.703125 C4.26738281 3.87359375 4.35117187 5.0440625 4.4375 6.25 C4.51871094 7.41015625 4.59992187 8.5703125 4.68359375 9.765625 C4.93247787 12.30977376 5.28114942 14.55953248 6 17 C7.65 16.67 9.3 16.34 11 16 C11.33 10.72 11.66 5.44 12 0 C13.65 0 15.3 0 17 0 C17 7.26 17 14.52 17 22 C4.375 22.25 4.375 22.25 1 20 C0.09761253 17.29283758 -0.11851302 15.76223232 -0.09765625 12.98828125 C-0.09443359 12.23095703 -0.09121094 11.47363281 -0.08789062 10.69335938 C-0.07951172 9.90767578 -0.07113281 9.12199219 -0.0625 8.3125 C-0.05798828 7.51521484 -0.05347656 6.71792969 -0.04882812 5.89648438 C-0.0370585 3.93095743 -0.01912348 1.96546915 0 0 Z " fill="#EF2000" transform="translate(670,88)"/>
<path d="M0 0 C2.475 0.495 2.475 0.495 5 1 C5.33 0.67 5.66 0.34 6 0 C12.35065658 -0.47041901 12.35065658 -0.47041901 14.70825195 1.23754883 C16.3451209 3.47088032 16.34830626 4.70078921 16.29296875 7.44921875 C16.28330078 8.29677734 16.27363281 9.14433594 16.26367188 10.01757812 C16.23853516 10.89865234 16.21339844 11.77972656 16.1875 12.6875 C16.16719727 14.02651367 16.16719727 14.02651367 16.14648438 15.39257812 C16.11114079 17.59566166 16.06180493 19.79752582 16 22 C14.68 22 13.36 22 12 22 C11.67 16.72 11.34 11.44 11 6 C9.68 5.67 8.36 5.34 7 5 C4.57520264 8.63719605 4.61337423 10.85703482 4.375 15.1875 C4.26285156 17.09595703 4.26285156 17.09595703 4.1484375 19.04296875 C4.09945312 20.01878906 4.05046875 20.99460937 4 22 C2.68 22 1.36 22 0 22 C0 14.74 0 7.48 0 0 Z " fill="#EF2000" transform="translate(691,88)"/>
<path d="M0 0 C1 1 1 1 1.0625 3.5625 C1.041875 4.366875 1.02125 5.17125 1 6 C-1.31 5.67 -3.62 5.34 -6 5 C-6.33 5.99 -6.66 6.98 -7 8 C-6.071875 8.2475 -5.14375 8.495 -4.1875 8.75 C-0.77169242 10.08953239 0.44551574 10.70815098 2 14 C1.875 17.125 1.875 17.125 1 20 C-2.16942884 22.11295256 -2.99629953 22.25250929 -6.625 22.1875 C-7.42164063 22.18105469 -8.21828125 22.17460938 -9.0390625 22.16796875 C-11 22 -11 22 -12 21 C-12.04063832 19.33382885 -12.042721 17.66611905 -12 16 C-9.36 16.33 -6.72 16.66 -4 17 C-4 16.34 -4 15.68 -4 15 C-5.7015625 14.195625 -5.7015625 14.195625 -7.4375 13.375 C-10.37608614 11.69750751 -10.87943219 11.34042675 -12.0625 8 C-11.9991862 4.96093777 -11.73453482 3.46486527 -10 1 C-6.74696956 -0.62651522 -3.60774398 -0.11453156 0 0 Z " fill="#EF2000" transform="translate(772,88)"/>
<path d="M0 0 C0 1.98 0 3.96 0 6 C1.32 6 2.64 6 4 6 C4 7.65 4 9.3 4 11 C2.68 11 1.36 11 0 11 C0.33 14.96 0.66 18.92 1 23 C1.99 23 2.98 23 4 23 C4 24.65 4 26.3 4 28 C1.1875 28.3125 1.1875 28.3125 -2 28 C-4.97757813 24.25045716 -5.34259536 21.39205939 -5.1875 16.6875 C-5.16042969 15.61886719 -5.13335938 14.55023438 -5.10546875 13.44921875 C-5.07066406 12.64097656 -5.03585937 11.83273438 -5 11 C-5.99 11 -6.98 11 -8 11 C-8 9.35 -8 7.7 -8 6 C-7.01 6 -6.02 6 -5 6 C-4.67 4.35 -4.34 2.7 -4 1 C-1 0 -1 0 0 0 Z " fill="#EF2000" transform="translate(663,82)"/>
<path d="M0 0 C0 1.98 0 3.96 0 6 C1.65 6 3.3 6 5 6 C5 7.65 5 9.3 5 11 C3.35 11 1.7 11 0 11 C0.33 14.96 0.66 18.92 1 23 C2.32 23 3.64 23 5 23 C5 24.65 5 26.3 5 28 C1.625 28.125 1.625 28.125 -2 28 C-4 26 -4 26 -4.1953125 22.5234375 C-4.18201493 21.14049032 -4.15816232 19.75761346 -4.125 18.375 C-4.11597656 17.66859375 -4.10695313 16.9621875 -4.09765625 16.234375 C-4.07407603 14.48943902 -4.03820461 12.74467705 -4 11 C-4.99 11 -5.98 11 -7 11 C-7 9.35 -7 7.7 -7 6 C-6.01 6 -5.02 6 -4 6 C-4 4.35 -4 2.7 -4 1 C-1 0 -1 0 0 0 Z " fill="#EF2000" transform="translate(726,82)"/>
<path d="M0 0 C3.63 0 7.26 0 11 0 C11 1.65 11 3.3 11 5 C9.35 5.66 7.7 6.32 6 7 C5.67 11.95 5.34 16.9 5 22 C3.35 22 1.7 22 0 22 C0 14.74 0 7.48 0 0 Z " fill="#EF2000" transform="translate(642,88)"/>
<path d="M0 0 C1.65 0 3.3 0 5 0 C5 9.24 5 18.48 5 28 C3.35 28 1.7 28 0 28 C0 18.76 0 9.52 0 0 Z " fill="#323232" transform="translate(655,43)"/>
<path d="M0 0 C1.65 0 3.3 0 5 0 C5 9.24 5 18.48 5 28 C3.35 28 1.7 28 0 28 C0 18.76 0 9.52 0 0 Z " fill="#323232" transform="translate(623,43)"/>
<path d="M0 0 C1.65 0 3.3 0 5 0 C5 9.24 5 18.48 5 28 C3.35 28 1.7 28 0 28 C0 18.76 0 9.52 0 0 Z " fill="#323232" transform="translate(571,43)"/>
<path d="M0 0 C1.65 0 3.3 0 5 0 C5 7.26 5 14.52 5 22 C3.35 22 1.7 22 0 22 C0 14.74 0 7.48 0 0 Z " fill="#EF2000" transform="translate(711,88)"/>
<path d="M0 0 C1.32 0 2.64 0 4 0 C4 7.26 4 14.52 4 22 C2.68 22 1.36 22 0 22 C0 14.74 0 7.48 0 0 Z " fill="#EF2000" transform="translate(734,88)"/>
<path d="M0 0 C1.010625 0.0825 2.02125 0.165 3.0625 0.25 C5.0625 3.25 5.0625 3.25 4.75 5.875 C4.0625 8.25 4.0625 8.25 3.0625 9.25 C0.0625 9.375 0.0625 9.375 -2.9375 9.25 C-3.9375 8.25 -3.9375 8.25 -4.0625 4.75 C-3.90472561 0.33231707 -3.90472561 0.33231707 0 0 Z " fill="#2A2A2A" transform="translate(47.9375,50.75)"/>
<path d="M0 0 C3 0.125 3 0.125 4 1.125 C4.14115161 3.79558851 4.04247107 6.44932238 4 9.125 C1.36 9.125 -1.28 9.125 -4 9.125 C-4.09765625 2.97265625 -4.09765625 2.97265625 -4 1.125 C-3 0.125 -3 0.125 0 0 Z " fill="#74A51E" transform="translate(193,-0.125)"/>
<path d="M0 0 C2.0625 0.4375 2.0625 0.4375 4 1 C4 2.65 4 4.3 4 6 C0.25 7.125 0.25 7.125 -2 6 C-1.125 1.125 -1.125 1.125 0 0 Z " fill="#323232" transform="translate(573,30)"/>
<path d="M0 0 C2.125 0.9375 2.125 0.9375 4 2 C3.67 3.32 3.34 4.64 3 6 C1.0625 6.5625 1.0625 6.5625 -1 7 C-2 6 -2 6 -2.0625 3.4375 C-2.041875 2.633125 -2.02125 1.82875 -2 1 C-1.34 0.67 -0.68 0.34 0 0 Z " fill="#323232" transform="translate(625,30)"/>
<path d="M0 0 C1.32 0.33 2.64 0.66 4 1 C4 2.65 4 4.3 4 6 C2.68 6.33 1.36 6.66 0 7 C-0.66 5.68 -1.32 4.36 -2 3 C-1.34 2.01 -0.68 1.02 0 0 Z " fill="#323232" transform="translate(656,30)"/>
<path d="M0 0 C1.98 0.495 1.98 0.495 4 1 C3.67 2.65 3.34 4.3 3 6 C1.68 5.67 0.36 5.34 -1 5 C-0.67 3.35 -0.34 1.7 0 0 Z " fill="#EF2000" transform="translate(712,79)"/>
<path d="M0 0 C1.32 0.66 2.64 1.32 4 2 C3.34 3.32 2.68 4.64 2 6 C0.68 5.34 -0.64 4.68 -2 4 C-1.34 2.68 -0.68 1.36 0 0 Z " fill="#EF2000" transform="translate(735,79)"/>
</svg>
