<?xml version="1.0" encoding="UTF-8"?>
<svg version="1.1" xmlns="http://www.w3.org/2000/svg" width="438" height="112">
<path d="M0 0 C3.63 0 7.26 0 11 0 C11.33 4.29 11.66 8.58 12 13 C12.804375 12.484375 13.60875 11.96875 14.4375 11.4375 C19.01400992 9.5908381 22.28468222 9.63948716 27 11 C31.70792173 13.87706328 33.91280639 16.81659889 35.53125 21.9609375 C36.94284514 28.10137636 36.01755281 33.54783072 33 39 C29.13109126 43.32949311 25.83635295 44.77983458 20.19140625 45.15234375 C16.98354092 44.92933707 14.67438393 43.71434867 12 42 C11.67 42.66 11.34 43.32 11 44 C7.37 44 3.74 44 0 44 C0 29.48 0 14.96 0 0 Z M12 22 C11.03951968 24.97921442 10.82271816 27.88094758 11 31 C12.37716666 33.71107713 12.37716666 33.71107713 15 35 C18 35.75 18 35.75 21 35 C23.610911 33.04913936 23.610911 33.04913936 25 30 C24.93931504 26.48027215 24.66225706 24.08052467 22.8125 21.0625 C18.8493222 18.73925784 15.63604302 19.57597132 12 22 Z " fill="#000065" transform="translate(90,10)"/>
<path d="M0 0 C4.55390754 2.63897989 7.27408956 6.94972876 9.625 11.5625 C9.625 12.2225 9.625 12.8825 9.625 13.5625 C-1.47848644 14.20002075 -1.47848644 14.20002075 -5.1875 11.5625 C-5.909375 10.9025 -6.63125 10.2425 -7.375 9.5625 C-11.69938094 8.86751021 -13.60697622 9.07227205 -17.3125 11.4375 C-20.16062085 15.75283462 -20.15436361 19.51714607 -19.375 24.5625 C-18.37276596 26.98315001 -17.75907705 28.26377341 -15.6875 29.875 C-12.26176201 30.89346265 -9.81683926 30.42295982 -6.375 29.5625 C-5.77171875 28.88960937 -5.1684375 28.21671875 -4.546875 27.5234375 C-1.64654483 24.90479407 0.03572361 25.14557494 3.875 25.3125 C4.95265625 25.34859375 6.0303125 25.3846875 7.140625 25.421875 C7.96046875 25.46828125 8.7803125 25.5146875 9.625 25.5625 C8.28687139 31.04882729 5.89436558 34.9252937 1.625 38.5625 C-4.64550402 42.13693128 -11.480301 42.32833658 -18.375 40.5625 C-23.90718246 38.11313677 -28.41887273 34.71845454 -30.78125 29.03125 C-32.45646343 22.0658889 -32.93227328 14.26569282 -29.1875 7.9375 C-22.19310171 -1.28328422 -10.89430608 -4.59701933 0 0 Z " fill="#000065" transform="translate(38.375,13.4375)"/>
<path d="M0 0 C3.3444164 1.65791582 5.12873119 3.66191377 6.640625 6.96875 C7.703125 10.34375 7.703125 10.34375 7.703125 12.34375 C3.743125 12.34375 -0.216875 12.34375 -4.296875 12.34375 C-4.626875 11.02375 -4.956875 9.70375 -5.296875 8.34375 C-7.606875 8.34375 -9.916875 8.34375 -12.296875 8.34375 C-12.32830882 10.76747559 -12.32830882 10.76747559 -11.296875 13.34375 C-8.25480216 15.05710273 -8.25480216 15.05710273 -4.546875 16.28125 C4.90736286 19.96728434 4.90736286 19.96728434 7.703125 25.34375 C8.4288151 29.49997514 8.64983356 31.69266441 6.55859375 35.33984375 C3.46775226 39.26252121 0.72722727 41.42095571 -4.296875 42.34375 C-9.85301886 42.85820776 -14.41781787 41.99541149 -19.296875 39.34375 C-22.87630256 35.94788282 -23.84349388 33.21759699 -24.296875 28.34375 C-20.336875 28.34375 -16.376875 28.34375 -12.296875 28.34375 C-11.636875 29.66375 -10.976875 30.98375 -10.296875 32.34375 C-8.646875 32.34375 -6.996875 32.34375 -5.296875 32.34375 C-4.966875 31.02375 -4.636875 29.70375 -4.296875 28.34375 C-5.16699219 27.96283203 -5.16699219 27.96283203 -6.0546875 27.57421875 C-20.572809 21.17762066 -20.572809 21.17762066 -23.296875 17.34375 C-24.68591903 12.64788503 -24.81454662 9.41891413 -22.671875 4.96875 C-16.58812271 -1.75539727 -8.55763694 -2.44503913 0 0 Z " fill="#000065" transform="translate(214.296875,12.65625)"/>
<path d="M0 0 C3.96 0 7.92 0 12 0 C14.31 5.94 16.62 11.88 19 18 C20.93272435 12.45141413 20.93272435 12.45141413 22.85913086 6.90063477 C23.22083374 5.86894165 23.22083374 5.86894165 23.58984375 4.81640625 C23.83597412 4.10943604 24.08210449 3.40246582 24.33569336 2.67407227 C25 1 25 1 26 0 C28.01964199 -0.07244053 30.04167124 -0.08377188 32.0625 -0.0625 C33.71958984 -0.04896484 33.71958984 -0.04896484 35.41015625 -0.03515625 C36.26480469 -0.02355469 37.11945313 -0.01195313 38 0 C37.38802083 1.46875 36.77604167 2.9375 36.1640625 4.40625 C35.76372803 5.36716553 35.36339355 6.32808105 34.95092773 7.31811523 C34.06013741 9.45578239 33.16901918 11.59331294 32.27758789 13.73071289 C29.89223917 19.45144652 27.51259142 25.17442985 25.14453125 30.90234375 C24.69062012 31.99804688 24.23670898 33.09375 23.76904297 34.22265625 C22.8897776 36.34553238 22.0124597 38.4692163 21.13720703 40.59375 C20.74001465 41.55152344 20.34282227 42.50929687 19.93359375 43.49609375 C19.58353271 44.34357178 19.23347168 45.1910498 18.87280273 46.06420898 C18 48 18 48 17 49 C15.14712498 49.07226502 13.29166122 49.0838122 11.4375 49.0625 C10.42558594 49.05347656 9.41367187 49.04445312 8.37109375 49.03515625 C7.19740234 49.01775391 7.19740234 49.01775391 6 49 C6.74345533 44.07903377 8.81853972 40.40701881 11.234375 36.109375 C12.3802912 31.45555207 10.78933516 28.32946965 9 24 C8.63696777 23.09233887 8.27393555 22.18467773 7.89990234 21.24951172 C6.31706575 17.33799581 4.68372818 13.4482677 3.05273438 9.55664062 C2.66021484 8.61111328 2.26769531 7.66558594 1.86328125 6.69140625 C1.50532471 5.83748291 1.14736816 4.98355957 0.77856445 4.10375977 C0 2 0 2 0 0 Z " fill="#000065" transform="translate(50,21)"/>
<path d="M0 0 C3.59885613 2.42531609 5.44387076 5.15192478 6.796875 9.2109375 C6.796875 11.8509375 6.796875 14.4909375 6.796875 17.2109375 C-0.793125 17.2109375 -8.383125 17.2109375 -16.203125 17.2109375 C-15.543125 18.5309375 -14.883125 19.8509375 -14.203125 21.2109375 C-11.28645833 22.2109375 -11.28645833 22.2109375 -8.203125 22.2109375 C-7.213125 21.5509375 -6.223125 20.8909375 -5.203125 20.2109375 C-2.50390625 20.015625 -2.50390625 20.015625 0.484375 20.0859375 C1.97517578 20.11300781 1.97517578 20.11300781 3.49609375 20.140625 C4.25535156 20.16382812 5.01460938 20.18703125 5.796875 20.2109375 C4.94660116 24.137202 3.64101648 26.29195019 0.796875 29.2109375 C-4.08807654 31.9352374 -8.65177353 33.15202375 -14.203125 32.2109375 C-20.01841472 30.33606267 -23.32912807 27.72901161 -26.203125 22.2109375 C-28.07648463 17.37142513 -27.60349039 12.43310552 -26.015625 7.5859375 C-23.53795028 2.9723363 -21.13273455 0.09184621 -16.328125 -2.1015625 C-10.02248184 -3.48880399 -5.61474012 -3.06852076 0 0 Z M-16.203125 10.2109375 C-16.203125 10.5409375 -16.203125 10.8709375 -16.203125 11.2109375 C-12.243125 11.2109375 -8.283125 11.2109375 -4.203125 11.2109375 C-5.78148798 7.52716527 -5.78148798 7.52716527 -7.203125 6.2109375 C-11.72315063 5.60012323 -13.36134669 6.73765289 -16.203125 10.2109375 Z " fill="#000065" transform="translate(408.203125,22.7890625)"/>
<path d="M0 0 C3.59885613 2.42531609 5.44387076 5.15192478 6.796875 9.2109375 C6.796875 11.8509375 6.796875 14.4909375 6.796875 17.2109375 C-0.793125 17.2109375 -8.383125 17.2109375 -16.203125 17.2109375 C-15.543125 18.5309375 -14.883125 19.8509375 -14.203125 21.2109375 C-11.28645833 22.2109375 -11.28645833 22.2109375 -8.203125 22.2109375 C-7.213125 21.5509375 -6.223125 20.8909375 -5.203125 20.2109375 C-2.50390625 20.015625 -2.50390625 20.015625 0.484375 20.0859375 C1.97517578 20.11300781 1.97517578 20.11300781 3.49609375 20.140625 C4.25535156 20.16382812 5.01460938 20.18703125 5.796875 20.2109375 C4.94660116 24.137202 3.64101648 26.29195019 0.796875 29.2109375 C-4.08807654 31.9352374 -8.65177353 33.15202375 -14.203125 32.2109375 C-20.01841472 30.33606267 -23.32912807 27.72901161 -26.203125 22.2109375 C-28.07648463 17.37142513 -27.60349039 12.43310552 -26.015625 7.5859375 C-23.53795028 2.9723363 -21.13273455 0.09184621 -16.328125 -2.1015625 C-10.02248184 -3.48880399 -5.61474012 -3.06852076 0 0 Z M-16.203125 10.2109375 C-16.203125 10.5409375 -16.203125 10.8709375 -16.203125 11.2109375 C-12.243125 11.2109375 -8.283125 11.2109375 -4.203125 11.2109375 C-5.78148798 7.52716527 -5.78148798 7.52716527 -7.203125 6.2109375 C-11.72315063 5.60012323 -13.36134669 6.73765289 -16.203125 10.2109375 Z " fill="#000065" transform="translate(252.203125,22.7890625)"/>
<path d="M0 0 C3.59885613 2.42531609 5.44387076 5.15192478 6.796875 9.2109375 C6.796875 11.8509375 6.796875 14.4909375 6.796875 17.2109375 C-0.793125 17.2109375 -8.383125 17.2109375 -16.203125 17.2109375 C-15.543125 18.5309375 -14.883125 19.8509375 -14.203125 21.2109375 C-11.28645833 22.2109375 -11.28645833 22.2109375 -8.203125 22.2109375 C-7.213125 21.5509375 -6.223125 20.8909375 -5.203125 20.2109375 C-2.50390625 20.015625 -2.50390625 20.015625 0.484375 20.0859375 C1.97517578 20.11300781 1.97517578 20.11300781 3.49609375 20.140625 C4.25535156 20.16382812 5.01460937 20.18703125 5.796875 20.2109375 C4.94660116 24.137202 3.64101648 26.29195019 0.796875 29.2109375 C-4.08807654 31.9352374 -8.65177353 33.15202375 -14.203125 32.2109375 C-20.01841472 30.33606267 -23.32912807 27.72901161 -26.203125 22.2109375 C-28.07648463 17.37142513 -27.60349039 12.43310552 -26.015625 7.5859375 C-23.53795028 2.9723363 -21.13273455 0.09184621 -16.328125 -2.1015625 C-10.02248184 -3.48880399 -5.61474012 -3.06852076 0 0 Z M-16.203125 10.2109375 C-16.203125 10.5409375 -16.203125 10.8709375 -16.203125 11.2109375 C-12.243125 11.2109375 -8.283125 11.2109375 -4.203125 11.2109375 C-5.78148798 7.52716527 -5.78148798 7.52716527 -7.203125 6.2109375 C-11.72315063 5.60012323 -13.36134669 6.73765289 -16.203125 10.2109375 Z " fill="#000065" transform="translate(155.203125,22.7890625)"/>
<path d="M0 0 C3.45382001 2.82061967 5.59326224 5.77978673 7 10 C7.08209792 11.77313851 7.10746294 13.54920775 7.09765625 15.32421875 C7.09443359 16.35224609 7.09121094 17.38027344 7.08789062 18.43945312 C7.07532227 20.04723633 7.07532227 20.04723633 7.0625 21.6875 C7.05798828 22.77095703 7.05347656 23.85441406 7.04882812 24.97070312 C7.03703757 27.64715894 7.01910208 30.32358639 7 33 C3.37 33 -0.26 33 -4 33 C-4.06058594 31.50726563 -4.12117188 30.01453125 -4.18359375 28.4765625 C-4.26799173 26.52603138 -4.3526401 24.57551108 -4.4375 22.625 C-4.47681641 21.64015625 -4.51613281 20.6553125 -4.55664062 19.640625 C-4.59853516 18.69960938 -4.64042969 17.75859375 -4.68359375 16.7890625 C-4.72025146 15.91975098 -4.75690918 15.05043945 -4.79467773 14.15478516 C-4.87401544 11.9516738 -4.87401544 11.9516738 -6 10 C-9.41656024 9.83322718 -9.41656024 9.83322718 -13 10 C-15.48057628 12.48057628 -15.29019005 13.36192464 -15.4140625 16.7890625 C-15.47207031 18.20058594 -15.47207031 18.20058594 -15.53125 19.640625 C-15.57765625 21.11789063 -15.57765625 21.11789063 -15.625 22.625 C-15.68300781 24.11386719 -15.68300781 24.11386719 -15.7421875 25.6328125 C-15.83662661 28.08822942 -15.91940881 30.54408957 -16 33 C-19.63 33 -23.26 33 -27 33 C-27 22.11 -27 11.22 -27 0 C-23.37 0 -19.74 0 -16 0 C-15.67 0.66 -15.34 1.32 -15 2 C-14.195625 1.484375 -13.39125 0.96875 -12.5625 0.4375 C-8.03090391 -1.39103877 -4.63404613 -1.65501647 0 0 Z " fill="#000065" transform="translate(371,21)"/>
<path d="M0 0 C3.45382001 2.82061967 5.59326224 5.77978673 7 10 C7.08209792 11.77313851 7.10746294 13.54920775 7.09765625 15.32421875 C7.09443359 16.35224609 7.09121094 17.38027344 7.08789062 18.43945312 C7.07532227 20.04723633 7.07532227 20.04723633 7.0625 21.6875 C7.05798828 22.77095703 7.05347656 23.85441406 7.04882812 24.97070312 C7.03703757 27.64715894 7.01910208 30.32358639 7 33 C3.37 33 -0.26 33 -4 33 C-4.06058594 31.50726563 -4.12117188 30.01453125 -4.18359375 28.4765625 C-4.26799173 26.52603138 -4.3526401 24.57551108 -4.4375 22.625 C-4.47681641 21.64015625 -4.51613281 20.6553125 -4.55664062 19.640625 C-4.59853516 18.69960938 -4.64042969 17.75859375 -4.68359375 16.7890625 C-4.72025146 15.91975098 -4.75690918 15.05043945 -4.79467773 14.15478516 C-4.87401544 11.9516738 -4.87401544 11.9516738 -6 10 C-9.41656024 9.83322718 -9.41656024 9.83322718 -13 10 C-15.48057628 12.48057628 -15.29019005 13.36192464 -15.4140625 16.7890625 C-15.47207031 18.20058594 -15.47207031 18.20058594 -15.53125 19.640625 C-15.57765625 21.11789063 -15.57765625 21.11789063 -15.625 22.625 C-15.68300781 24.11386719 -15.68300781 24.11386719 -15.7421875 25.6328125 C-15.83662661 28.08822942 -15.91940881 30.54408957 -16 33 C-19.63 33 -23.26 33 -27 33 C-27 22.11 -27 11.22 -27 0 C-23.37 0 -19.74 0 -16 0 C-15.67 0.66 -15.34 1.32 -15 2 C-14.195625 1.484375 -13.39125 0.96875 -12.5625 0.4375 C-8.03090391 -1.39103877 -4.63404613 -1.65501647 0 0 Z " fill="#000065" transform="translate(290,21)"/>
<path d="M0 0 C2.5 1.4375 2.5 1.4375 4 4 C4.31656151 7.36082802 4.23113261 10.63573652 4 14 C6.00613134 13.18468266 6.00613134 13.18468266 8 12 C8.81171228 9.44480079 8.81171228 9.44480079 9 7 C8.175 6.401875 7.35 5.80375 6.5 5.1875 C5.675 4.465625 4.85 3.74375 4 3 C4 2.01 4 1.02 4 0 C4.93972656 0.12568359 4.93972656 0.12568359 5.8984375 0.25390625 C7.12433594 0.40666016 7.12433594 0.40666016 8.375 0.5625 C9.18710937 0.66691406 9.99921875 0.77132812 10.8359375 0.87890625 C13.04899186 1.18237328 13.04899186 1.18237328 15 0 C16.70702735 -0.06996014 18.41668003 -0.08440154 20.125 -0.0625 C21.73375 -0.041875 23.3425 -0.02125 25 0 C25.495 6.435 25.495 6.435 26 13 C28.475 13.495 28.475 13.495 31 14 C31.33 9.38 31.66 4.76 32 0 C33.32 0 34.64 0 36 0 C36.0809723 2.43816585 36.14046972 4.87364384 36.1875 7.3125 C36.21263672 8.00279297 36.23777344 8.69308594 36.26367188 9.40429688 C36.33777767 14.5175964 36.33777767 14.5175964 34.61328125 16.98046875 C33 18 33 18 31 18 C31 20.64 31 23.28 31 26 C29.35 26 27.7 26 26 26 C26 23.36 26 20.72 26 18 C23.525 17.01 23.525 17.01 21 16 C20.67 16.66 20.34 17.32 20 18 C18.88625 17.835 17.7725 17.67 16.625 17.5 C12.60422519 16.7936288 12.60422519 16.7936288 9 18 C7.45976004 18.06950541 5.91665012 18.08452357 4.375 18.0625 C3.14910156 18.04896484 3.14910156 18.04896484 1.8984375 18.03515625 C1.27195312 18.02355469 0.64546875 18.01195313 0 18 C-0.06058594 17.22914062 -0.12117188 16.45828125 -0.18359375 15.6640625 C-0.26738281 14.66117188 -0.35117187 13.65828125 -0.4375 12.625 C-0.51871094 11.62726563 -0.59992188 10.62953125 -0.68359375 9.6015625 C-0.84965626 7.02072387 -0.84965626 7.02072387 -2 5 C-4.9737344 3.90963072 -5.88407501 3.96135834 -9 5 C-9.73334429 8.97754128 -9.73334429 8.97754128 -10 13 C-5.34947128 13.26932521 -5.34947128 13.26932521 -1 12 C-1 13.98 -1 15.96 -1 18 C-5.37396685 19.01720159 -8.03773231 19.24885463 -12 17 C-14.86523113 14.43117209 -15.00454016 12.95913856 -15.4375 9.0625 C-15.28482035 4.97068526 -14.01636157 2.84399805 -11 0 C-7.13755652 -1.28748116 -3.8837299 -0.96897889 0 0 Z M15 5 C13.91776634 7.91004903 13.91776634 7.91004903 14 11 C15.12640605 12.96040481 15.12640605 12.96040481 17 14 C17.99 14 18.98 14 20 14 C20 10.37 20 6.74 20 3 C17.89200955 3 16.70652924 3.82676115 15 5 Z " fill="#E82F34" transform="translate(295,78)"/>
<path d="M0 0 C3.63 0 7.26 0 11 0 C11 2.64 11 5.28 11 8 C12.98 8 14.96 8 17 8 C17 10.97 17 13.94 17 17 C15.02 17 13.04 17 11 17 C11 21.95 11 26.9 11 32 C12.98 32 14.96 32 17 32 C17 34.97 17 37.94 17 41 C7.07849011 41.62552427 7.07849011 41.62552427 2.875 39.1875 C0.29996524 36.18329278 -0.12641315 33.81294889 -0.09765625 29.98828125 C-0.09282227 28.85229492 -0.09282227 28.85229492 -0.08789062 27.69335938 C-0.07951172 26.90767578 -0.07113281 26.12199219 -0.0625 25.3125 C-0.05798828 24.51521484 -0.05347656 23.71792969 -0.04882812 22.89648438 C-0.0370585 20.93095743 -0.01912348 18.96546915 0 17 C-1.32 17 -2.64 17 -4 17 C-4 14.03 -4 11.06 -4 8 C-2.68 8 -1.36 8 0 8 C0 5.36 0 2.72 0 0 Z " fill="#000065" transform="translate(305,13)"/>
<path d="M0 0 C3.63 0 7.26 0 11 0 C11 14.52 11 29.04 11 44 C7.37 44 3.74 44 0 44 C0 29.48 0 14.96 0 0 Z " fill="#000065" transform="translate(420,10)"/>
<path d="M0 0 C0 3.96 0 7.92 0 12 C-1.11375 12.103125 -2.2275 12.20625 -3.375 12.3125 C-4.57125 12.539375 -5.7675 12.76625 -7 13 C-9.0140956 16.0211434 -9.26836596 16.80660017 -9.4140625 20.23046875 C-9.47207031 21.43413086 -9.47207031 21.43413086 -9.53125 22.66210938 C-9.57765625 23.91217773 -9.57765625 23.91217773 -9.625 25.1875 C-9.68300781 26.4549707 -9.68300781 26.4549707 -9.7421875 27.74804688 C-9.83636279 29.83167524 -9.91926675 31.91580753 -10 34 C-13.63 34 -17.26 34 -21 34 C-21 23.11 -21 12.22 -21 1 C-17.37 1 -13.74 1 -10 1 C-9.67 1.99 -9.34 2.98 -9 4 C-8.401875 3.525625 -7.80375 3.05125 -7.1875 2.5625 C-4.79207889 0.85148492 -2.9732816 0 0 0 Z " fill="#000065" transform="translate(187,20)"/>
<path d="M0 0 C3.63 0 7.26 0 11 0 C11 10.89 11 21.78 11 33 C7.37 33 3.74 33 0 33 C0 22.11 0 11.22 0 0 Z " fill="#000065" transform="translate(327,21)"/>
<path d="M0 0 C2.64 0 5.28 0 8 0 C8 2.64 8 5.28 8 8 C6.68 8 5.36 8 4 8 C4.061875 9.258125 4.12375 10.51625 4.1875 11.8125 C4.18059993 15.71104011 4.18059993 15.71104011 2.75 18 C1 19 1 19 -3 19 C-3 21.64 -3 24.28 -3 27 C-5.45382134 28.22691067 -7.19984103 28.20175931 -9.9375 28.25 C-10.81277344 28.27578125 -11.68804687 28.3015625 -12.58984375 28.328125 C-15 28 -15 28 -16.796875 26.83203125 C-18.46241972 24.29586089 -18.36462246 22.44857466 -18.3125 19.4375 C-18.30863281 18.46683594 -18.30476563 17.49617188 -18.30078125 16.49609375 C-18 14 -18 14 -16 12 C-12.375 11.875 -12.375 11.875 -9 12 C-9.020625 11.030625 -9.04125 10.06125 -9.0625 9.0625 C-9 6 -9 6 -8 5 C-5.32941149 4.85884839 -2.67567762 4.95752893 0 5 C0 3.35 0 1.7 0 0 Z M-7 7 C-7 8.65 -7 10.3 -7 12 C-6.01 12.33 -5.02 12.66 -4 13 C-3.3125 15.0625 -3.3125 15.0625 -3 17 C-0.24358584 16.50243908 -0.24358584 16.50243908 2 15 C2.04092937 12.66702567 2.04241723 10.33294775 2 8 C-0.95664519 6.5216774 -3.74229737 6.93967217 -7 7 Z " fill="#A4CC43" transform="translate(112,76)"/>
<path d="M0 0 C3.65110991 2.78734951 4.87236369 4.2262544 5.62890625 8.8125 C5.6328572 10.20850325 5.61012202 11.60480366 5.5625 13 C5.57345703 13.69867188 5.58441406 14.39734375 5.59570312 15.1171875 C5.52646403 20.01008361 4.46641025 22.57894465 1 26 C-2.14341993 27.57170996 -5.55771451 27.23175783 -9 27 C-9.99 26.67 -10.98 26.34 -12 26 C-11.67 24.68 -11.34 23.36 -11 22 C-9.9275 22.020625 -8.855 22.04125 -7.75 22.0625 C-4.85209576 22.0142016 -2.71387859 21.86844115 0 21 C0 20.01 0 19.02 0 18 C-0.66 18.33 -1.32 18.66 -2 19 C-6.6478538 19.41314256 -9.24440152 18.78987316 -13 16 C-14.8457676 12.30846481 -14.48175083 8.02978061 -14 4 C-10.22916133 -1.3311857 -6.06982256 -1.46512958 0 0 Z M-5 3 C-7.60943058 4.0645852 -7.60943058 4.0645852 -10 6 C-10.75 9 -10.75 9 -10 12 C-8.42304368 14.0785608 -8.42304368 14.0785608 -6 15 C-2.67649546 14.76554071 -2.67649546 14.76554071 0 13 C0.50031206 9.58428147 0.50031206 9.58428147 0 6 C-2.3726974 3.99135641 -2.3726974 3.99135641 -5 3 Z " fill="#EA3035" transform="translate(244,78)"/>
<path d="M0 0 C1.14275391 0.06574219 1.14275391 0.06574219 2.30859375 0.1328125 C5.66561997 1.23824574 6.75755032 2.8803318 8.5625 5.875 C8.953125 9.20703125 8.953125 9.20703125 8.8125 12.6875 C8.77640625 13.84894531 8.7403125 15.01039062 8.703125 16.20703125 C8.63351563 17.52767578 8.63351563 17.52767578 8.5625 18.875 C-4.51531363 20.63140539 -4.51531363 20.63140539 -9.4375 16.875 C-11.83100071 13.71993089 -11.90168819 10.7432349 -11.4375 6.875 C-8.41625196 1.35340875 -6.28890621 -0.48784095 0 0 Z M-1.4375 3.875 C-5.0704961 5.67022209 -5.0704961 5.67022209 -7.4375 8.8125 C-7.4375 11.6390838 -6.27850939 12.81306949 -4.4375 14.875 C-0.09565798 14.69035634 -0.09565798 14.69035634 3.5625 12.875 C4.06292146 9.95961971 4.06292146 9.95961971 3.5625 6.875 C1.17193058 4.9395852 1.17193058 4.9395852 -1.4375 3.875 Z " fill="#2F2F2F" transform="translate(211.4375,77.125)"/>
<path d="M0 0 C2.89318094 2.76650927 3.9208091 4.32450164 4.390625 8.33203125 C4.32101562 10.05486328 4.32101562 10.05486328 4.25 11.8125 C4.21390625 12.97394531 4.1778125 14.13539062 4.140625 15.33203125 C4.07101562 16.65267578 4.07101562 16.65267578 4 18 C2.10688117 18.25060425 0.21022961 18.47460633 -1.6875 18.6875 C-2.74324219 18.81511719 -3.79898437 18.94273438 -4.88671875 19.07421875 C-9.43562943 18.96577546 -11.85326724 17.14673276 -15 14 C-16.00135898 9.99456409 -16.21181901 7.62368929 -14.875 3.6875 C-11.32753944 -1.39719346 -5.67143338 -2.24376788 0 0 Z M-8.8125 4 C-11.3106651 5.85887896 -11.3106651 5.85887896 -11.4375 9.0625 C-11.28056299 12.11625538 -11.28056299 12.11625538 -9 14 C-6 14.33333333 -6 14.33333333 -3 14 C-0.58878141 12.04366025 -0.58878141 12.04366025 -0.875 8.375 C-0.91625 7.26125 -0.9575 6.1475 -1 5 C-4.14884436 3.29062735 -5.36408666 2.77389748 -8.8125 4 Z " fill="#E93034" transform="translate(266,78)"/>
<path d="M0 0 C1.32 0 2.64 0 4 0 C4.33 4.29 4.66 8.58 5 13 C5.99 13.33 6.98 13.66 8 14 C8.66 13.67 9.32 13.34 10 13 C10.46954261 9.95418731 10.46954261 9.95418731 10.625 6.4375 C10.69976562 5.23996094 10.77453125 4.04242188 10.8515625 2.80859375 C10.90054688 1.88175781 10.94953125 0.95492187 11 0 C12.65 0 14.3 0 16 0 C16.05441656 1.89551022 16.09298035 3.7914792 16.125 5.6875 C16.14820313 6.74324219 16.17140625 7.79898438 16.1953125 8.88671875 C15.99666143 12.05321688 15.41400785 14.17701637 14 17 C11.3402643 19.16719206 9.91162404 18.99534863 6.4375 18.8125 C1.83040168 17.72354949 1.83040168 17.72354949 0 15 C-0.2172101 12.35003674 -0.28351554 9.94923442 -0.1875 7.3125 C-0.17396484 6.61060547 -0.16042969 5.90871094 -0.14648438 5.18554688 C-0.11120182 3.45670171 -0.05739583 1.72825235 0 0 Z " fill="#303030" transform="translate(182,78)"/>
<path d="M0 0 C1.65 0 3.3 0 5 0 C6.32 3.3 7.64 6.6 9 10 C10.53521956 7.69717067 11.58357909 5.82137765 12.625 3.3125 C13.07875 2.219375 13.5325 1.12625 14 0 C15.65 0 17.3 0 19 0 C18.12733844 2.80091375 17.22869238 5.58834151 16.3125 8.375 C16.06822266 9.1690625 15.82394531 9.963125 15.57226562 10.78125 C13.60587359 16.65553507 13.60587359 16.65553507 10.29296875 18.5390625 C9.53628906 18.69117187 8.77960938 18.84328125 8 19 C5.24020259 15.71414149 3.81690532 12.37771204 2.3125 8.375 C1.87550781 7.22773437 1.43851563 6.08046875 0.98828125 4.8984375 C0 2 0 2 0 0 Z " fill="#313131" transform="translate(130,78)"/>
<path d="M0 0 C1.32 0 2.64 0 4 0 C4 1.65 4 3.3 4 5 C6.31 5 8.62 5 11 5 C11 6.32 11 7.64 11 9 C8.69 9 6.38 9 4 9 C4 12.3 4 15.6 4 19 C6.31 19 8.62 19 11 19 C11 20.32 11 21.64 11 23 C9.54207116 23.05399736 8.08357288 23.09279177 6.625 23.125 C5.40683594 23.15980469 5.40683594 23.15980469 4.1640625 23.1953125 C2 23 2 23 0 21 C-0.22705078 18.84521484 -0.22705078 18.84521484 -0.1953125 16.2109375 C-0.18886719 15.26992187 -0.18242187 14.32890625 -0.17578125 13.359375 C-0.15902344 12.37453125 -0.14226562 11.3896875 -0.125 10.375 C-0.11597656 9.38242188 -0.10695312 8.38984375 -0.09765625 7.3671875 C-0.07404116 4.91121866 -0.04110799 2.45572832 0 0 Z " fill="#323232" transform="translate(170,73)"/>
<path d="M0 0 C1.65 0 3.3 0 5 0 C5 8.91 5 17.82 5 27 C3.35 27 1.7 27 0 27 C0 18.09 0 9.18 0 0 Z " fill="#EB3034" transform="translate(272,69)"/>
<path d="M0 0 C1.65 0 3.3 0 5 0 C5 8.91 5 17.82 5 27 C3.35 27 1.7 27 0 27 C0 18.09 0 9.18 0 0 Z " fill="#323232" transform="translate(222,69)"/>
<path d="M0 0 C2.15502531 3.23253796 2.46856135 4.25150923 2 8 C0.875 9.8125 0.875 9.8125 -1 11 C-4.68983715 11.54955021 -6.34610467 11.45269677 -9.4375 9.3125 C-11 7 -11 7 -11 4.4375 C-8.74369179 -1.06225126 -5.45958805 -1.66161375 0 0 Z " fill="#000065" transform="translate(337,7)"/>
<path d="M0 0 C2.64 0 5.28 0 8 0 C8 2.64 8 5.28 8 8 C6.68 8 5.36 8 4 8 C4.061875 9.258125 4.12375 10.51625 4.1875 11.8125 C4.20826011 15.72231986 4.20826011 15.72231986 2.5 18 C2.005 18.33 1.51 18.66 1 19 C0.67 18.01 0.34 17.02 0 16 C0.33 15.67 0.66 15.34 1 15 C1.36760731 12.67182036 1.70241581 10.3381615 2 8 C-0.97 7.67 -3.94 7.34 -7 7 C-6.67 6.34 -6.34 5.68 -6 5 C-4.02 5 -2.04 5 0 5 C0 3.35 0 1.7 0 0 Z " fill="#A5CB42" transform="translate(112,76)"/>
<path d="M0 0 C0 1.32 0 2.64 0 4 C-1.32 4.33 -2.64 4.66 -4 5 C-4.33 9.62 -4.66 14.24 -5 19 C-6.32 19 -7.64 19 -9 19 C-9 13.06 -9 7.12 -9 1 C-4 0 -4 0 0 0 Z " fill="#323232" transform="translate(168,77)"/>
<path d="M0 0 C1.32 0 2.64 0 4 0 C4 5.94 4 11.88 4 18 C2.68 18 1.36 18 0 18 C0 12.06 0 6.12 0 0 Z " fill="#323232" transform="translate(151,78)"/>
<path d="M0 0 C3.3 0 6.6 0 10 0 C10 1.98 10 3.96 10 6 C7.36 6 4.72 6 2 6 C2 4.68 2 3.36 2 2 C1.34 2 0.68 2 0 2 C0 1.34 0 0.68 0 0 Z " fill="#2C2C2C" transform="translate(332,71)"/>
<path d="M0 0 C1.65 0 3.3 0 5 0 C5 1.65 5 3.3 5 5 C3.35 5 1.7 5 0 5 C0 3.35 0 1.7 0 0 Z " fill="#A6CD43" transform="translate(120,71)"/>
<path d="M0 0 C1.32 0 2.64 0 4 0 C4 1.32 4 2.64 4 4 C2.35 3.67 0.7 3.34 -1 3 C-0.67 2.01 -0.34 1.02 0 0 Z " fill="#323232" transform="translate(151,72)"/>
<path d="M0 0 C0.33 0 0.66 0 1 0 C1.36923077 7.50769231 1.36923077 7.50769231 -0.5 10 C-0.995 10.33 -1.49 10.66 -2 11 C-2.33 10.01 -2.66 9.02 -3 8 C-2.01 7.67 -1.02 7.34 0 7 C0 4.69 0 2.38 0 0 Z " fill="#7CA42E" transform="translate(115,84)"/>
</svg>
